<svg version="1.1" viewBox="247 230 345 200" fill="none" stroke="none" stroke-linecap="square" stroke-miterlimit="10" xmlns:xlink="http://www.w3.org/1999/xlink" xmlns="http://www.w3.org/2000/svg"><clipPath id="p.0"><path d="m0 0l960.0 0l0 720.0l-960.0 0l0 -720.0z" clip-rule="nonzero"/></clipPath><g clip-path="url(#p.0)"><path fill="#000000" d="m270.0119 307.16577l0 -10.109375l-3.78125 0l0 -1.34375l9.078125 0l0 1.34375l-3.78125 0l0 10.109375l-1.515625 0zm6.6796875 0l0 -11.453125l1.40625 0l0 4.109375q0.984375 -1.140625 2.484375 -1.140625q0.921875 0 1.59375 0.359375q0.6875 0.359375 0.96875 1.0q0.296875 0.640625 0.296875 1.859375l0 5.265625l-1.40625 0l0 -5.265625q0 -1.046875 -0.453125 -1.53125q-0.453125 -0.484375 -1.296875 -0.484375q-0.625 0 -1.171875 0.328125q-0.546875 0.328125 -0.78125 0.890625q-0.234375 0.546875 -0.234375 1.515625l0 4.546875l-1.40625 0zm14.5703125 -2.671875l1.453125 0.171875q-0.34375 1.28125 -1.28125 1.984375q-0.921875 0.703125 -2.359375 0.703125q-1.828125 0 -2.890625 -1.125q-1.0625 -1.125 -1.0625 -3.140625q0 -2.09375 1.078125 -3.25q1.078125 -1.15625 2.796875 -1.15625q1.65625 0 2.703125 1.140625q1.0625 1.125 1.0625 3.171875q0 0.125 0 0.375l-6.1875 0q0.078125 1.375 0.765625 2.109375q0.703125 0.71875 1.734375 0.71875q0.78125 0 1.328125 -0.40625q0.546875 -0.40625 0.859375 -1.296875zm-4.609375 -2.28125l4.625 0q-0.09375 -1.046875 -0.53125 -1.5625q-0.671875 -0.8125 -1.734375 -0.8125q-0.96875 0 -1.640625 0.65625q-0.65625 0.640625 -0.71875 1.71875zm11.6875 1.703125l1.359375 -0.1875q0.0625 1.3125 0.5 1.796875q0.4375 0.484375 1.203125 0.484375q0.578125 0 0.984375 -0.265625q0.421875 -0.265625 0.578125 -0.703125q0.15625 -0.453125 0.15625 -1.4375l0 -7.890625l1.515625 0l0 7.796875q0 1.4375 -0.359375 2.234375q-0.34375 0.78125 -1.09375 1.203125q-0.75 0.421875 -1.765625 0.421875q-1.515625 0 -2.3125 -0.875q-0.796875 -0.875 -0.765625 -2.578125zm14.03125 3.25l0 -1.21875q-0.96875 1.40625 -2.640625 1.40625q-0.734375 0 -1.375 -0.28125q-0.625 -0.28125 -0.9375 -0.703125q-0.3125 -0.4375 -0.4375 -1.046875q-0.078125 -0.421875 -0.078125 -1.3125l0 -5.140625l1.40625 0l0 4.59375q0 1.109375 0.078125 1.484375q0.140625 0.5625 0.5625 0.875q0.4375 0.3125 1.0625 0.3125q0.640625 0 1.1875 -0.3125q0.5625 -0.328125 0.78125 -0.890625q0.234375 -0.5625 0.234375 -1.625l0 -4.4375l1.40625 0l0 8.296875l-1.25 0zm3.4609375 0l0 -8.296875l1.265625 0l0 1.171875q0.90625 -1.359375 2.640625 -1.359375q0.75 0 1.375 0.265625q0.625 0.265625 0.9375 0.703125q0.3125 0.4375 0.4375 1.046875q0.078125 0.390625 0.078125 1.359375l0 5.109375l-1.40625 0l0 -5.046875q0 -0.859375 -0.171875 -1.28125q-0.15625 -0.4375 -0.578125 -0.6875q-0.40625 -0.25 -0.96875 -0.25q-0.90625 0 -1.5625 0.578125q-0.640625 0.5625 -0.640625 2.15625l0 4.53125l-1.40625 0zm8.6328125 0.6875l1.375 0.203125q0.078125 0.640625 0.46875 0.921875q0.53125 0.390625 1.4375 0.390625q0.96875 0 1.5 -0.390625q0.53125 -0.390625 0.71875 -1.09375q0.109375 -0.421875 0.109375 -1.8125q-0.921875 1.09375 -2.296875 1.09375q-1.71875 0 -2.65625 -1.234375q-0.9375 -1.234375 -0.9375 -2.96875q0 -1.1875 0.421875 -2.1875q0.4375 -1.0 1.25 -1.546875q0.828125 -0.546875 1.921875 -0.546875q1.46875 0 2.421875 1.1875l0 -1.0l1.296875 0l0 7.171875q0 1.9375 -0.390625 2.75q-0.390625 0.8125 -1.25 1.28125q-0.859375 0.46875 -2.109375 0.46875q-1.484375 0 -2.40625 -0.671875q-0.90625 -0.671875 -0.875 -2.015625zm1.171875 -4.984375q0 1.625 0.640625 2.375q0.65625 0.75 1.625 0.75q0.96875 0 1.625 -0.734375q0.65625 -0.75 0.65625 -2.34375q0 -1.53125 -0.671875 -2.296875q-0.671875 -0.78125 -1.625 -0.78125q-0.9375 0 -1.59375 0.765625q-0.65625 0.765625 -0.65625 2.265625zm7.9609375 4.296875l0 -11.453125l1.40625 0l0 11.453125l-1.40625 0zm9.2578125 -2.671875l1.453125 0.171875q-0.34375 1.28125 -1.28125 1.984375q-0.921875 0.703125 -2.359375 0.703125q-1.828125 0 -2.890625 -1.125q-1.0625 -1.125 -1.0625 -3.140625q0 -2.09375 1.078125 -3.25q1.078125 -1.15625 2.796875 -1.15625q1.65625 0 2.703125 1.140625q1.0625 1.125 1.0625 3.171875q0 0.125 0 0.375l-6.1875 0q0.078125 1.375 0.765625 2.109375q0.703125 0.71875 1.734375 0.71875q0.78125 0 1.328125 -0.40625q0.546875 -0.40625 0.859375 -1.296875zm-4.609375 -2.28125l4.625 0q-0.09375 -1.046875 -0.53125 -1.5625q-0.671875 -0.8125 -1.734375 -0.8125q-0.96875 0 -1.640625 0.65625q-0.65625 0.640625 -0.71875 1.71875z" fill-rule="nonzero"/><path fill="#cfe2f3" d="m351.76117 302.22308l0 0c0 -3.2354126 2.890747 -5.858246 6.456665 -5.858246l0 0c3.5659485 0 6.4566956 2.6228333 6.4566956 5.858246l0 0c0 3.235443 -2.890747 5.8582764 -6.4566956 5.8582764l0 0c-3.565918 0 -6.456665 -2.6228333 -6.456665 -5.8582764z" fill-rule="evenodd"/><path stroke="#000000" stroke-width="1.0" stroke-linejoin="round" stroke-linecap="butt" d="m351.76117 302.22308l0 0c0 -3.2354126 2.890747 -5.858246 6.456665 -5.858246l0 0c3.5659485 0 6.4566956 2.6228333 6.4566956 5.858246l0 0c0 3.235443 -2.890747 5.8582764 -6.4566956 5.8582764l0 0c-3.565918 0 -6.456665 -2.6228333 -6.456665 -5.8582764z" fill-rule="evenodd"/><path fill="#000000" fill-opacity="0.0" d="m263.05737 379.96063l95.74802 0l0 26.708649l-95.74802 0z" fill-rule="evenodd"/><path fill="#000000" d="m281.46362 400.305l1.515625 0.375q-0.46875 1.875 -1.71875 2.859375q-1.234375 0.984375 -3.015625 0.984375q-1.859375 0 -3.015625 -0.75q-1.15625 -0.765625 -1.765625 -2.1875q-0.609375 -1.4375 -0.609375 -3.078125q0 -1.796875 0.6875 -3.125q0.6875 -1.328125 1.9375 -2.015625q1.265625 -0.703125 2.78125 -0.703125q1.71875 0 2.890625 0.875q1.171875 0.875 1.640625 2.46875l-1.5 0.34375q-0.390625 -1.25 -1.15625 -1.8125q-0.75 -0.578125 -1.90625 -0.578125q-1.3125 0 -2.203125 0.640625q-0.890625 0.625 -1.25 1.703125q-0.359375 1.0625 -0.359375 2.1875q0 1.46875 0.421875 2.5625q0.4375 1.078125 1.328125 1.625q0.90625 0.53125 1.953125 0.53125q1.265625 0 2.140625 -0.734375q0.890625 -0.734375 1.203125 -2.171875zm8.6171875 2.984375q-0.78125 0.671875 -1.5 0.953125q-0.71875 0.265625 -1.546875 0.265625q-1.375 0 -2.109375 -0.671875q-0.734375 -0.671875 -0.734375 -1.703125q0 -0.609375 0.28125 -1.109375q0.28125 -0.515625 0.71875 -0.8125q0.453125 -0.3125 1.015625 -0.46875q0.421875 -0.109375 1.25 -0.203125q1.703125 -0.203125 2.515625 -0.484375q0 -0.296875 0 -0.375q0 -0.859375 -0.390625 -1.203125q-0.546875 -0.484375 -1.609375 -0.484375q-0.984375 0 -1.46875 0.359375q-0.46875 0.34375 -0.6875 1.21875l-1.375 -0.1875q0.1875 -0.875 0.609375 -1.421875q0.4375 -0.546875 1.25 -0.828125q0.8125 -0.296875 1.875 -0.296875q1.0625 0 1.71875 0.25q0.671875 0.25 0.984375 0.625q0.3125 0.375 0.4375 0.953125q0.078125 0.359375 0.078125 1.296875l0 1.875q0 1.96875 0.078125 2.484375q0.09375 0.515625 0.359375 1.0l-1.46875 0q-0.21875 -0.4375 -0.28125 -1.03125zm-0.109375 -3.140625q-0.765625 0.3125 -2.296875 0.53125q-0.875 0.125 -1.234375 0.28125q-0.359375 0.15625 -0.5625 0.46875q-0.1875 0.296875 -0.1875 0.65625q0 0.5625 0.421875 0.9375q0.4375 0.375 1.25 0.375q0.8125 0 1.4375 -0.34375q0.640625 -0.359375 0.9375 -0.984375q0.234375 -0.46875 0.234375 -1.40625l0 -0.515625zm6.6640625 2.90625l0.203125 1.25q-0.59375 0.125 -1.0625 0.125q-0.765625 0 -1.1875 -0.234375q-0.421875 -0.25 -0.59375 -0.640625q-0.171875 -0.40625 -0.171875 -1.671875l0 -4.765625l-1.03125 0l0 -1.09375l1.03125 0l0 -2.0625l1.40625 -0.84375l0 2.90625l1.40625 0l0 1.09375l-1.40625 0l0 4.84375q0 0.609375 0.0625 0.78125q0.078125 0.171875 0.25 0.28125q0.171875 0.09375 0.484375 0.09375q0.234375 0 0.609375 -0.0625zm6.7890625 -1.78125l1.390625 0.1875q-0.234375 1.421875 -1.171875 2.234375q-0.921875 0.8125 -2.28125 0.8125q-1.703125 0 -2.75 -1.109375q-1.03125 -1.125 -1.03125 -3.203125q0 -1.34375 0.4375 -2.34375q0.453125 -1.015625 1.359375 -1.515625q0.921875 -0.5 1.984375 -0.5q1.359375 0 2.21875 0.6875q0.859375 0.671875 1.09375 1.9375l-1.359375 0.203125q-0.203125 -0.828125 -0.703125 -1.25q-0.484375 -0.421875 -1.1875 -0.421875q-1.0625 0 -1.734375 0.765625q-0.65625 0.75 -0.65625 2.40625q0 1.671875 0.640625 2.4375q0.640625 0.75 1.671875 0.75q0.828125 0 1.375 -0.5q0.5625 -0.515625 0.703125 -1.578125zm2.59375 3.046875l0 -11.453125l1.40625 0l0 4.109375q0.984375 -1.140625 2.484375 -1.140625q0.921875 0 1.59375 0.359375q0.6875 0.359375 0.96875 1.0q0.296875 0.640625 0.296875 1.859375l0 5.265625l-1.40625 0l0 -5.265625q0 -1.046875 -0.453125 -1.53125q-0.453125 -0.484375 -1.296875 -0.484375q-0.625 0 -1.171875 0.328125q-0.546875 0.328125 -0.78125 0.890625q-0.234375 0.546875 -0.234375 1.515625l0 4.546875l-1.40625 0zm8.3515625 -3.4375l0 -1.421875l4.3125 0l0 1.421875l-4.3125 0zm12.875 2.078125l0 1.359375l-7.578125 0q-0.015625 -0.515625 0.171875 -0.984375q0.28125 -0.765625 0.921875 -1.515625q0.640625 -0.75 1.84375 -1.734375q1.859375 -1.53125 2.515625 -2.421875q0.65625 -0.90625 0.65625 -1.703125q0 -0.828125 -0.59375 -1.40625q-0.59375 -0.578125 -1.5625 -0.578125q-1.015625 0 -1.625 0.609375q-0.609375 0.609375 -0.609375 1.6875l-1.453125 -0.140625q0.15625 -1.625 1.125 -2.46875q0.96875 -0.84375 2.59375 -0.84375q1.65625 0 2.609375 0.921875q0.96875 0.90625 0.96875 2.25q0 0.6875 -0.28125 1.359375q-0.28125 0.65625 -0.9375 1.390625q-0.65625 0.734375 -2.171875 2.015625q-1.265625 1.0625 -1.625 1.453125q-0.359375 0.375 -0.59375 0.75l5.625 0zm8.8984375 0l0 1.359375l-7.578125 0q-0.015625 -0.515625 0.171875 -0.984375q0.28125 -0.765625 0.921875 -1.515625q0.640625 -0.75 1.84375 -1.734375q1.859375 -1.53125 2.515625 -2.421875q0.65625 -0.90625 0.65625 -1.703125q0 -0.828125 -0.59375 -1.40625q-0.59375 -0.578125 -1.5625 -0.578125q-1.015625 0 -1.625 0.609375q-0.609375 0.609375 -0.609375 1.6875l-1.453125 -0.140625q0.15625 -1.625 1.125 -2.46875q0.96875 -0.84375 2.59375 -0.84375q1.65625 0 2.609375 0.921875q0.96875 0.90625 0.96875 2.25q0 0.6875 -0.28125 1.359375q-0.28125 0.65625 -0.9375 1.390625q-0.65625 0.734375 -2.171875 2.015625q-1.265625 1.0625 -1.625 1.453125q-0.359375 0.375 -0.59375 0.75l5.625 0z" fill-rule="nonzero"/><path fill="#cfe2f3" d="m351.76117 399.1265l0 0c0 -3.235443 2.890747 -5.8582764 6.456665 -5.8582764l0 0c3.5659485 0 6.4566956 2.6228333 6.4566956 5.8582764l0 0c0 3.2354126 -2.890747 5.858246 -6.4566956 5.858246l0 0c-3.565918 0 -6.456665 -2.6228333 -6.456665 -5.858246z" fill-rule="evenodd"/><path stroke="#000000" stroke-width="1.0" stroke-linejoin="round" stroke-linecap="butt" d="m351.76117 399.1265l0 0c0 -3.235443 2.890747 -5.8582764 6.456665 -5.8582764l0 0c3.5659485 0 6.4566956 2.6228333 6.4566956 5.8582764l0 0c0 3.2354126 -2.890747 5.858246 -6.4566956 5.858246l0 0c-3.565918 0 -6.456665 -2.6228333 -6.456665 -5.858246z" fill-rule="evenodd"/><path fill="#ff0000" d="m537.7769 248.73753l0 0c0 -3.2354279 2.890747 -5.858261 6.456665 -5.858261l0 0c3.565918 0 6.456726 2.6228333 6.456726 5.858261l0 0c0 3.2354279 -2.890808 5.858261 -6.456726 5.858261l0 0c-3.565918 0 -6.456665 -2.6228333 -6.456665 -5.858261z" fill-rule="evenodd"/><path stroke="#000000" stroke-width="1.0" stroke-linejoin="round" stroke-linecap="butt" d="m537.7769 248.73753l0 0c0 -3.2354279 2.890747 -5.858261 6.456665 -5.858261l0 0c3.565918 0 6.456726 2.6228333 6.456726 5.858261l0 0c0 3.2354279 -2.890808 5.858261 -6.456726 5.858261l0 0c-3.565918 0 -6.456665 -2.6228333 -6.456665 -5.858261z" fill-rule="evenodd"/><path fill="#ff0000" d="m537.7769 272.73752l0 0c0 -3.2354126 2.890747 -5.858246 6.456665 -5.858246l0 0c3.565918 0 6.456726 2.6228333 6.456726 5.858246l0 0c0 3.235443 -2.890808 5.8582764 -6.456726 5.8582764l0 0c-3.565918 0 -6.456665 -2.6228333 -6.456665 -5.8582764z" fill-rule="evenodd"/><path stroke="#000000" stroke-width="1.0" stroke-linejoin="round" stroke-linecap="butt" d="m537.7769 272.73752l0 0c0 -3.2354126 2.890747 -5.858246 6.456665 -5.858246l0 0c3.565918 0 6.456726 2.6228333 6.456726 5.858246l0 0c0 3.235443 -2.890808 5.8582764 -6.456726 5.8582764l0 0c-3.565918 0 -6.456665 -2.6228333 -6.456665 -5.8582764z" fill-rule="evenodd"/><path fill="#cfe2f3" d="m537.7769 320.73752l0 0c0 -3.2354126 2.890747 -5.858246 6.456665 -5.858246l0 0c3.565918 0 6.456726 2.6228333 6.456726 5.858246l0 0c0 3.235443 -2.890808 5.8582764 -6.456726 5.8582764l0 0c-3.565918 0 -6.456665 -2.6228333 -6.456665 -5.8582764z" fill-rule="evenodd"/><path stroke="#000000" stroke-width="1.0" stroke-linejoin="round" stroke-linecap="butt" d="m537.7769 320.73752l0 0c0 -3.2354126 2.890747 -5.858246 6.456665 -5.858246l0 0c3.565918 0 6.456726 2.6228333 6.456726 5.858246l0 0c0 3.235443 -2.890808 5.8582764 -6.456726 5.8582764l0 0c-3.565918 0 -6.456665 -2.6228333 -6.456665 -5.8582764z" fill-rule="evenodd"/><path fill="#cfe2f3" d="m537.7769 344.73752l0 0c0 -3.2354126 2.890747 -5.858246 6.456665 -5.858246l0 0c3.565918 0 6.456726 2.6228333 6.456726 5.858246l0 0c0 3.235443 -2.890808 5.8582764 -6.456726 5.8582764l0 0c-3.565918 0 -6.456665 -2.6228333 -6.456665 -5.8582764z" fill-rule="evenodd"/><path stroke="#000000" stroke-width="1.0" stroke-linejoin="round" stroke-linecap="butt" d="m537.7769 344.73752l0 0c0 -3.2354126 2.890747 -5.858246 6.456665 -5.858246l0 0c3.565918 0 6.456726 2.6228333 6.456726 5.858246l0 0c0 3.235443 -2.890808 5.8582764 -6.456726 5.8582764l0 0c-3.565918 0 -6.456665 -2.6228333 -6.456665 -5.8582764z" fill-rule="evenodd"/><path fill="#cfe2f3" d="m537.7769 392.73752l0 0c0 -3.2354126 2.890747 -5.858246 6.456665 -5.858246l0 0c3.565918 0 6.456726 2.6228333 6.456726 5.858246l0 0c0 3.235443 -2.890808 5.8582764 -6.456726 5.8582764l0 0c-3.565918 0 -6.456665 -2.6228333 -6.456665 -5.8582764z" fill-rule="evenodd"/><path stroke="#000000" stroke-width="1.0" stroke-linejoin="round" stroke-linecap="butt" d="m537.7769 392.73752l0 0c0 -3.2354126 2.890747 -5.858246 6.456665 -5.858246l0 0c3.565918 0 6.456726 2.6228333 6.456726 5.858246l0 0c0 3.235443 -2.890808 5.8582764 -6.456726 5.8582764l0 0c-3.565918 0 -6.456665 -2.6228333 -6.456665 -5.8582764z" fill-rule="evenodd"/><path fill="#ff0000" d="m537.7769 416.73752l0 0c0 -3.2354126 2.890747 -5.858246 6.456665 -5.858246l0 0c3.565918 0 6.456726 2.6228333 6.456726 5.858246l0 0c0 3.235443 -2.890808 5.8582764 -6.456726 5.8582764l0 0c-3.565918 0 -6.456665 -2.6228333 -6.456665 -5.8582764z" fill-rule="evenodd"/><path stroke="#000000" stroke-width="1.0" stroke-linejoin="round" stroke-linecap="butt" d="m537.7769 416.73752l0 0c0 -3.2354126 2.890747 -5.858246 6.456665 -5.858246l0 0c3.565918 0 6.456726 2.6228333 6.456726 5.858246l0 0c0 3.235443 -2.890808 5.8582764 -6.456726 5.8582764l0 0c-3.565918 0 -6.456665 -2.6228333 -6.456665 -5.8582764z" fill-rule="evenodd"/><path fill="#cfe2f3" d="m537.7769 299.6719l0 0c0 -3.2354126 2.890747 -5.858246 6.456665 -5.858246l0 0c3.565918 0 6.456726 2.6228333 6.456726 5.858246l0 0c0 3.235443 -2.890808 5.8582764 -6.456726 5.8582764l0 0c-3.565918 0 -6.456665 -2.6228333 -6.456665 -5.8582764z" fill-rule="evenodd"/><path stroke="#000000" stroke-width="1.0" stroke-linejoin="round" stroke-linecap="butt" d="m537.7769 299.6719l0 0c0 -3.2354126 2.890747 -5.858246 6.456665 -5.858246l0 0c3.565918 0 6.456726 2.6228333 6.456726 5.858246l0 0c0 3.235443 -2.890808 5.8582764 -6.456726 5.8582764l0 0c-3.565918 0 -6.456665 -2.6228333 -6.456665 -5.8582764z" fill-rule="evenodd"/><path fill="#000000" fill-opacity="0.0" d="m553.2441 230.93076l37.448853 0l0 32.0l-37.448853 0z" fill-rule="evenodd"/><path fill="#000000" d="m562.79095 248.02763q0 -1.6875 0.34375 -2.71875q0.359375 -1.03125 1.046875 -1.59375q0.6875 -0.5625 1.71875 -0.5625q0.78125 0 1.359375 0.3125q0.578125 0.296875 0.953125 0.890625q0.375 0.578125 0.59375 1.421875q0.21875 0.828125 0.21875 2.25q0 1.671875 -0.359375 2.703125q-0.34375 1.03125 -1.03125 1.59375q-0.671875 0.5625 -1.734375 0.5625q-1.375 0 -2.15625 -0.984375q-0.953125 -1.1875 -0.953125 -3.875zm1.203125 0q0 2.34375 0.546875 3.125q0.5625 0.78125 1.359375 0.78125q0.8125 0 1.359375 -0.78125q0.5625 -0.78125 0.5625 -3.125q0 -2.359375 -0.5625 -3.125q-0.546875 -0.78125 -1.359375 -0.78125q-0.8125 0 -1.296875 0.6875q-0.609375 0.875 -0.609375 3.21875z" fill-rule="nonzero"/><path fill="#000000" fill-opacity="0.0" d="m553.2441 256.91507l37.448853 0l0 32.0l-37.448853 0z" fill-rule="evenodd"/><path fill="#000000" d="m567.2128 278.71506l-1.171875 0l0 -7.46875q-0.421875 0.40625 -1.109375 0.8125q-0.6875 0.40625 -1.234375 0.609375l0 -1.140625q0.984375 -0.453125 1.71875 -1.109375q0.734375 -0.671875 1.03125 -1.28125l0.765625 0l0 9.578125z" fill-rule="nonzero"/><path fill="#000000" fill-opacity="0.0" d="m555.16925 303.9525l37.44879 0l0 32.0l-37.44879 0z" fill-rule="evenodd"/><path fill="#000000" d="m564.73175 323.23688l1.171875 -0.15625q0.203125 1.0 0.6875 1.4375q0.484375 0.4375 1.171875 0.4375q0.828125 0 1.390625 -0.578125q0.578125 -0.578125 0.578125 -1.421875q0 -0.796875 -0.53125 -1.3125q-0.515625 -0.53125 -1.328125 -0.53125q-0.34375 0 -0.828125 0.125l0.125 -1.03125q0.125 0.015625 0.1875 0.015625q0.75 0 1.34375 -0.390625q0.609375 -0.390625 0.609375 -1.203125q0 -0.640625 -0.4375 -1.0625q-0.4375 -0.421875 -1.125 -0.421875q-0.6875 0 -1.140625 0.4375q-0.453125 0.421875 -0.59375 1.28125l-1.171875 -0.21875q0.21875 -1.171875 0.984375 -1.8125q0.765625 -0.65625 1.890625 -0.65625q0.78125 0 1.4375 0.34375q0.65625 0.328125 1.0 0.90625q0.359375 0.578125 0.359375 1.234375q0 0.609375 -0.34375 1.125q-0.328125 0.5 -0.96875 0.796875q0.84375 0.203125 1.3125 0.828125q0.46875 0.609375 0.46875 1.53125q0 1.25 -0.921875 2.125q-0.90625 0.859375 -2.296875 0.859375q-1.25 0 -2.09375 -0.75q-0.828125 -0.75 -0.9375 -1.9375z" fill-rule="nonzero"/><path fill="#000000" fill-opacity="0.0" d="m554.5276 329.40927l37.44879 0l0 32.0l-37.44879 0z" fill-rule="evenodd"/><path fill="#000000" d="m567.8401 351.20926l0 -2.28125l-4.140625 0l0 -1.078125l4.34375 -6.1875l0.96875 0l0 6.1875l1.28125 0l0 1.078125l-1.28125 0l0 2.28125l-1.171875 0zm0 -3.359375l0 -4.296875l-2.984375 4.296875l2.984375 0z" fill-rule="nonzero"/><path fill="#000000" fill-opacity="0.0" d="m553.2441 374.02737l37.448853 0l0 32.0l-37.448853 0z" fill-rule="evenodd"/><path fill="#000000" d="m568.8691 388.62424l-1.15625 0.09375q-0.15625 -0.6875 -0.4375 -1.0q-0.484375 -0.5 -1.171875 -0.5q-0.5625 0 -0.984375 0.3125q-0.5625 0.390625 -0.890625 1.171875q-0.3125 0.765625 -0.3125 2.203125q0.421875 -0.640625 1.03125 -0.953125q0.609375 -0.3125 1.28125 -0.3125q1.171875 0 1.984375 0.859375q0.828125 0.859375 0.828125 2.234375q0 0.890625 -0.390625 1.671875q-0.375 0.765625 -1.0625 1.171875q-0.671875 0.40625 -1.53125 0.40625q-1.46875 0 -2.390625 -1.0625q-0.921875 -1.078125 -0.921875 -3.5625q0 -2.765625 1.015625 -4.015625q0.90625 -1.09375 2.40625 -1.09375q1.125 0 1.84375 0.640625q0.71875 0.625 0.859375 1.734375zm-4.78125 4.109375q0 0.609375 0.25 1.171875q0.265625 0.546875 0.71875 0.84375q0.46875 0.28125 0.984375 0.28125q0.734375 0 1.265625 -0.59375q0.546875 -0.609375 0.546875 -1.640625q0 -0.984375 -0.53125 -1.546875q-0.53125 -0.578125 -1.328125 -0.578125q-0.796875 0 -1.359375 0.578125q-0.546875 0.5625 -0.546875 1.484375z" fill-rule="nonzero"/><path fill="#000000" fill-opacity="0.0" d="m553.2441 398.02737l37.448853 0l0 32.0l-37.448853 0z" fill-rule="evenodd"/><path fill="#000000" d="m562.8691 411.5305l0 -1.125l6.1875 0l0 0.921875q-0.921875 0.96875 -1.8125 2.578125q-0.890625 1.59375 -1.375 3.296875q-0.359375 1.203125 -0.453125 2.625l-1.203125 0q0.015625 -1.125 0.4375 -2.71875q0.421875 -1.59375 1.203125 -3.078125q0.796875 -1.484375 1.6875 -2.5l-4.671875 0z" fill-rule="nonzero"/><path fill="#000000" fill-opacity="0.0" d="m554.8699 283.03705l37.448853 0l0 32.0l-37.448853 0z" fill-rule="evenodd"/><path fill="#000000" d="m570.573 303.71207l0 1.125l-6.296875 0q-0.015625 -0.421875 0.140625 -0.8125q0.234375 -0.640625 0.765625 -1.265625q0.53125 -0.625 1.53125 -1.453125q1.5625 -1.265625 2.109375 -2.015625q0.546875 -0.75 0.546875 -1.40625q0 -0.703125 -0.5 -1.171875q-0.5 -0.484375 -1.296875 -0.484375q-0.859375 0 -1.375 0.515625q-0.5 0.5 -0.5 1.390625l-1.203125 -0.109375q0.125 -1.359375 0.921875 -2.0625q0.8125 -0.703125 2.171875 -0.703125q1.375 0 2.171875 0.765625q0.8125 0.75 0.8125 1.875q0 0.578125 -0.234375 1.140625q-0.234375 0.546875 -0.78125 1.15625q-0.546875 0.609375 -1.8125 1.671875q-1.046875 0.890625 -1.359375 1.21875q-0.296875 0.3125 -0.484375 0.625l4.671875 0z" fill-rule="nonzero"/><path fill="#000000" fill-opacity="0.0" d="m364.6759 302.2329l174.99213 -57.637802" fill-rule="evenodd"/><path stroke="#980000" stroke-width="2.0" stroke-linejoin="round" stroke-linecap="butt" d="m364.6759 302.2329l163.59442 -53.883713" fill-rule="evenodd"/><path fill="#980000" stroke="#980000" stroke-width="2.0" stroke-linecap="butt" d="m529.30383 251.48685l7.587158 -5.977051l-9.654114 -0.2982483z" fill-rule="evenodd"/><path fill="#000000" fill-opacity="0.0" d="m364.67453 302.22308l173.10239 42.519684" fill-rule="evenodd"/><path stroke="#000000" stroke-width="1.0" stroke-linejoin="round" stroke-linecap="butt" d="m364.67453 302.22308l167.27554 41.08844" fill-rule="evenodd"/><path fill="#000000" stroke="#000000" stroke-width="1.0" stroke-linecap="butt" d="m531.5561 344.9156l4.8010864 -0.5215454l-4.0130615 -2.686554z" fill-rule="evenodd"/><path fill="#000000" fill-opacity="0.0" d="m364.67453 399.1265l173.10239 17.606293" fill-rule="evenodd"/><path stroke="#980000" stroke-width="2.0" stroke-linejoin="round" stroke-linecap="butt" d="m364.67453 399.12646l161.16397 16.392029" fill-rule="evenodd"/><path fill="#980000" stroke="#980000" stroke-width="2.0" stroke-linecap="butt" d="m525.5042 418.80502l9.363892 -2.368103l-8.6953125 -4.2049255z" fill-rule="evenodd"/><path fill="#000000" fill-opacity="0.0" d="m362.78342 394.98407l176.88187 -46.11023" fill-rule="evenodd"/><path stroke="#000000" stroke-width="1.0" stroke-linejoin="round" stroke-linecap="butt" d="m362.78342 394.98404l171.0759 -44.59671" fill-rule="evenodd"/><path fill="#000000" stroke="#000000" stroke-width="1.0" stroke-linecap="butt" d="m534.276 351.98566l3.9746704 -2.7430725l-4.8079834 -0.45358276z" fill-rule="evenodd"/><path fill="#000000" fill-opacity="0.0" d="m362.78342 394.98407l174.99216 -74.23624" fill-rule="evenodd"/><path stroke="#000000" stroke-width="1.0" stroke-linejoin="round" stroke-linecap="butt" d="m362.78342 394.98404l169.4686 -71.892975" fill-rule="evenodd"/><path fill="#000000" stroke="#000000" stroke-width="1.0" stroke-linecap="butt" d="m532.8971 324.61163l3.5326538 -3.2928467l-4.822815 0.25170898z" fill-rule="evenodd"/><path fill="#000000" fill-opacity="0.0" d="m362.78342 306.3655l174.99216 86.36221" fill-rule="evenodd"/><path stroke="#000000" stroke-width="1.0" stroke-linejoin="round" stroke-linecap="butt" d="m362.78342 306.36554l169.61166 83.70685" fill-rule="evenodd"/><path fill="#000000" stroke="#000000" stroke-width="1.0" stroke-linecap="butt" d="m531.6641 391.55356l4.800476 0.52719116l-3.338501 -3.4895325z" fill-rule="evenodd"/><path fill="#000000" fill-opacity="0.0" d="m247.40752 330.62674l133.70079 0l0 33.417328l-133.70079 0z" fill-rule="evenodd"/><path fill="#000000" d="m257.9075 354.98672l0 -11.453125l1.515625 0l0 11.453125l-1.515625 0zm4.0078125 0l0 -8.296875l1.265625 0l0 1.171875q0.90625 -1.359375 2.640625 -1.359375q0.75 0 1.375 0.265625q0.625 0.265625 0.9375 0.703125q0.3125 0.4375 0.4375 1.046875q0.078125 0.390625 0.078125 1.359375l0 5.109375l-1.40625 0l0 -5.046875q0 -0.859375 -0.171875 -1.28125q-0.15625 -0.4375 -0.578125 -0.6875q-0.40625 -0.25 -0.96875 -0.25q-0.90625 0 -1.5625 0.578125q-0.640625 0.5625 -0.640625 2.15625l0 4.53125l-1.40625 0zm11.1953125 0l-3.15625 -8.296875l1.484375 0l1.78125 4.96875q0.296875 0.796875 0.53125 1.671875q0.1875 -0.65625 0.53125 -1.578125l1.84375 -5.0625l1.4375 0l-3.140625 8.296875l-1.3125 0zm5.703125 -9.84375l0 -1.609375l1.40625 0l0 1.609375l-1.40625 0zm0 9.84375l0 -8.296875l1.40625 0l0 8.296875l-1.40625 0zm2.9921875 -2.484375l1.390625 -0.21875q0.109375 0.84375 0.640625 1.296875q0.546875 0.4375 1.5 0.4375q0.96875 0 1.4375 -0.390625q0.46875 -0.40625 0.46875 -0.9375q0 -0.46875 -0.40625 -0.75q-0.296875 -0.1875 -1.4375 -0.46875q-1.546875 -0.390625 -2.15625 -0.671875q-0.59375 -0.296875 -0.90625 -0.796875q-0.296875 -0.5 -0.296875 -1.109375q0 -0.5625 0.25 -1.03125q0.25 -0.46875 0.6875 -0.78125q0.328125 -0.25 0.890625 -0.40625q0.578125 -0.171875 1.21875 -0.171875q0.984375 0 1.71875 0.28125q0.734375 0.28125 1.078125 0.765625q0.359375 0.46875 0.5 1.28125l-1.375 0.1875q-0.09375 -0.640625 -0.546875 -1.0q-0.453125 -0.359375 -1.265625 -0.359375q-0.96875 0 -1.390625 0.328125q-0.40625 0.3125 -0.40625 0.734375q0 0.28125 0.171875 0.5q0.171875 0.21875 0.53125 0.375q0.21875 0.078125 1.25 0.359375q1.484375 0.390625 2.078125 0.65625q0.59375 0.25 0.921875 0.734375q0.34375 0.484375 0.34375 1.203125q0 0.703125 -0.421875 1.328125q-0.40625 0.609375 -1.1875 0.953125q-0.765625 0.34375 -1.734375 0.34375q-1.625 0 -2.46875 -0.671875q-0.84375 -0.671875 -1.078125 -2.0zm8.5625 -7.359375l0 -1.609375l1.40625 0l0 1.609375l-1.40625 0zm0 9.84375l0 -8.296875l1.40625 0l0 8.296875l-1.40625 0zm4.8515625 0l-1.3125 0l0 -11.453125l1.40625 0l0 4.078125q0.890625 -1.109375 2.28125 -1.109375q0.765625 0 1.4375 0.3125q0.6875 0.296875 1.125 0.859375q0.453125 0.5625 0.703125 1.359375q0.25 0.78125 0.25 1.671875q0 2.140625 -1.0625 3.3125q-1.046875 1.15625 -2.53125 1.15625q-1.46875 0 -2.296875 -1.234375l0 1.046875zm-0.015625 -4.21875q0 1.5 0.40625 2.15625q0.65625 1.09375 1.796875 1.09375q0.921875 0 1.59375 -0.796875q0.671875 -0.8125 0.671875 -2.390625q0 -1.625 -0.65625 -2.390625q-0.640625 -0.78125 -1.546875 -0.78125q-0.921875 0 -1.59375 0.796875q-0.671875 0.796875 -0.671875 2.3125zm7.5859375 4.21875l0 -11.453125l1.40625 0l0 11.453125l-1.40625 0zm9.2578125 -2.671875l1.453125 0.171875q-0.34375 1.28125 -1.28125 1.984375q-0.921875 0.703125 -2.359375 0.703125q-1.828125 0 -2.890625 -1.125q-1.0625 -1.125 -1.0625 -3.140625q0 -2.09375 1.078125 -3.25q1.078125 -1.15625 2.796875 -1.15625q1.65625 0 2.703125 1.140625q1.0625 1.125 1.0625 3.171875q0 0.125 0 0.375l-6.1875 0q0.078125 1.375 0.765625 2.109375q0.703125 0.71875 1.734375 0.71875q0.78125 0 1.328125 -0.40625q0.546875 -0.40625 0.859375 -1.296875zm-4.609375 -2.28125l4.625 0q-0.09375 -1.046875 -0.53125 -1.5625q-0.671875 -0.8125 -1.734375 -0.8125q-0.96875 0 -1.640625 0.65625q-0.65625 0.640625 -0.71875 1.71875zm12.40625 4.953125l0 -11.453125l2.28125 0l2.71875 8.109375q0.375 1.125 0.546875 1.6875q0.1875 -0.625 0.609375 -1.828125l2.734375 -7.96875l2.046875 0l0 11.453125l-1.46875 0l0 -9.59375l-3.328125 9.59375l-1.359375 0l-3.3125 -9.75l0 9.75l-1.46875 0zm18.609375 -1.03125q-0.78125 0.671875 -1.5 0.953125q-0.71875 0.265625 -1.546875 0.265625q-1.375 0 -2.109375 -0.671875q-0.734375 -0.671875 -0.734375 -1.703125q0 -0.609375 0.28125 -1.109375q0.28125 -0.515625 0.71875 -0.8125q0.453125 -0.3125 1.015625 -0.46875q0.421875 -0.109375 1.25 -0.203125q1.703125 -0.203125 2.515625 -0.484375q0 -0.296875 0 -0.375q0 -0.859375 -0.390625 -1.203125q-0.546875 -0.484375 -1.609375 -0.484375q-0.984375 0 -1.46875 0.359375q-0.46875 0.34375 -0.6875 1.21875l-1.375 -0.1875q0.1875 -0.875 0.609375 -1.421875q0.4375 -0.546875 1.25 -0.828125q0.8125 -0.296875 1.875 -0.296875q1.0625 0 1.71875 0.25q0.671875 0.25 0.984375 0.625q0.3125 0.375 0.4375 0.953125q0.078125 0.359375 0.078125 1.296875l0 1.875q0 1.96875 0.078125 2.484375q0.09375 0.515625 0.359375 1.0l-1.46875 0q-0.21875 -0.4375 -0.28125 -1.03125zm-0.109375 -3.140625q-0.765625 0.3125 -2.296875 0.53125q-0.875 0.125 -1.234375 0.28125q-0.359375 0.15625 -0.5625 0.46875q-0.1875 0.296875 -0.1875 0.65625q0 0.5625 0.421875 0.9375q0.4375 0.375 1.25 0.375q0.8125 0 1.4375 -0.34375q0.640625 -0.359375 0.9375 -0.984375q0.234375 -0.46875 0.234375 -1.40625l0 -0.515625zm3.6015625 4.171875l0 -8.296875l1.265625 0l0 1.171875q0.90625 -1.359375 2.640625 -1.359375q0.75 0 1.375 0.265625q0.625 0.265625 0.9375 0.703125q0.3125 0.4375 0.4375 1.046875q0.078125 0.390625 0.078125 1.359375l0 5.109375l-1.40625 0l0 -5.046875q0 -0.859375 -0.171875 -1.28125q-0.15625 -0.4375 -0.578125 -0.6875q-0.40625 -0.25 -0.96875 -0.25q-0.90625 0 -1.5625 0.578125q-0.640625 0.5625 -0.640625 2.15625l0 4.53125l-1.40625 0z" fill-rule="nonzero"/><path fill="#cfe2f3" d="m351.76117 350.22308l0 0c0 -3.2354126 2.890747 -5.858246 6.456665 -5.858246l0 0c3.5659485 0 6.4566956 2.6228333 6.4566956 5.858246l0 0c0 3.235443 -2.890747 5.8582764 -6.4566956 5.8582764l0 0c-3.565918 0 -6.456665 -2.6228333 -6.456665 -5.8582764z" fill-rule="evenodd"/><path stroke="#000000" stroke-width="1.0" stroke-linejoin="round" stroke-linecap="butt" d="m351.76117 350.22308l0 0c0 -3.2354126 2.890747 -5.858246 6.456665 -5.858246l0 0c3.5659485 0 6.4566956 2.6228333 6.4566956 5.858246l0 0c0 3.235443 -2.890747 5.8582764 -6.4566956 5.8582764l0 0c-3.565918 0 -6.456665 -2.6228333 -6.456665 -5.8582764z" fill-rule="evenodd"/><path fill="#000000" fill-opacity="0.0" d="m364.67453 350.22308l173.10239 -77.480316" fill-rule="evenodd"/><path stroke="#980000" stroke-width="2.0" stroke-linejoin="round" stroke-linecap="butt" d="m364.67453 350.22308l162.1495 -72.57779" fill-rule="evenodd"/><path fill="#980000" stroke="#980000" stroke-width="2.0" stroke-linecap="butt" d="m528.17365 280.6605l6.9345703 -6.7232056l-9.633789 0.69277954z" fill-rule="evenodd"/><path fill="#000000" fill-opacity="0.0" d="m367.69815 351.3517l170.07877 41.385803" fill-rule="evenodd"/><path stroke="#000000" stroke-width="1.0" stroke-linejoin="round" stroke-linecap="butt" d="m367.69815 351.3517l164.24887 39.967224" fill-rule="evenodd"/><path fill="#000000" stroke="#000000" stroke-width="1.0" stroke-linecap="butt" d="m531.5565 392.92383l4.7999268 -0.5319519l-4.018921 -2.6778564z" fill-rule="evenodd"/><path fill="#000000" fill-opacity="0.0" d="m364.67453 350.22308l173.10239 -29.480316" fill-rule="evenodd"/><path stroke="#000000" stroke-width="1.0" stroke-linejoin="round" stroke-linecap="butt" d="m364.67453 350.22308l167.18753 -28.472992" fill-rule="evenodd"/><path fill="#000000" stroke="#000000" stroke-width="1.0" stroke-linecap="butt" d="m532.13934 323.3784l4.196411 -2.3901672l-4.7509766 -0.86639404z" fill-rule="evenodd"/><path fill="#cfe2f3" d="m537.7769 368.73752l0 0c0 -3.2354126 2.890747 -5.858246 6.456665 -5.858246l0 0c3.565918 0 6.456726 2.6228333 6.456726 5.858246l0 0c0 3.235443 -2.890808 5.8582764 -6.456726 5.8582764l0 0c-3.565918 0 -6.456665 -2.6228333 -6.456665 -5.8582764z" fill-rule="evenodd"/><path stroke="#000000" stroke-width="1.0" stroke-linejoin="round" stroke-linecap="butt" d="m537.7769 368.73752l0 0c0 -3.2354126 2.890747 -5.858246 6.456665 -5.858246l0 0c3.565918 0 6.456726 2.6228333 6.456726 5.858246l0 0c0 3.235443 -2.890808 5.8582764 -6.456726 5.8582764l0 0c-3.565918 0 -6.456665 -2.6228333 -6.456665 -5.8582764z" fill-rule="evenodd"/><path fill="#000000" fill-opacity="0.0" d="m554.5276 351.48413l37.44879 0l0 32.0l-37.44879 0z" fill-rule="evenodd"/><path fill="#000000" d="m564.07446 370.78412l1.234375 -0.109375q0.140625 0.90625 0.640625 1.359375q0.5 0.453125 1.203125 0.453125q0.84375 0 1.421875 -0.640625q0.59375 -0.640625 0.59375 -1.6875q0 -1.0 -0.5625 -1.578125q-0.5625 -0.59375 -1.484375 -0.59375q-0.5625 0 -1.015625 0.265625q-0.453125 0.25 -0.71875 0.671875l-1.09375 -0.15625l0.921875 -4.890625l4.75 0l0 1.109375l-3.8125 0l-0.515625 2.5625q0.859375 -0.59375 1.796875 -0.59375q1.25 0 2.109375 0.875q0.859375 0.859375 0.859375 2.21875q0 1.296875 -0.75 2.234375q-0.921875 1.15625 -2.5 1.15625q-1.3125 0 -2.140625 -0.71875q-0.8125 -0.734375 -0.9375 -1.9375z" fill-rule="nonzero"/></g></svg>
