<svg version="1.1" viewBox="305 249 336 244" fill="none" stroke="none" stroke-linecap="square" stroke-miterlimit="10" xmlns:xlink="http://www.w3.org/1999/xlink" xmlns="http://www.w3.org/2000/svg"><clipPath id="p.0"><path d="m0 0l960.0 0l0 720.0l-960.0 0l0 -720.0z" clip-rule="nonzero"/></clipPath><g clip-path="url(#p.0)"><path fill="#cfe2f3" d="m433.77692 331.6719l0 0c0 -3.2354126 2.890747 -5.858246 6.456665 -5.858246l0 0c3.5659485 0 6.4566956 2.6228333 6.4566956 5.858246l0 0c0 3.235443 -2.890747 5.8582764 -6.4566956 5.8582764l0 0c-3.565918 0 -6.456665 -2.6228333 -6.456665 -5.8582764z" fill-rule="evenodd"/><path stroke="#000000" stroke-width="1.0" stroke-linejoin="round" stroke-linecap="butt" d="m433.77692 331.6719l0 0c0 -3.2354126 2.890747 -5.858246 6.456665 -5.858246l0 0c3.5659485 0 6.4566956 2.6228333 6.4566956 5.858246l0 0c0 3.235443 -2.890747 5.8582764 -6.4566956 5.8582764l0 0c-3.565918 0 -6.456665 -2.6228333 -6.456665 -5.8582764z" fill-rule="evenodd"/><path fill="#cfe2f3" d="m393.77692 368.73752l0 0c0 -3.2354126 2.890747 -5.858246 6.456665 -5.858246l0 0c3.5659485 0 6.4566956 2.6228333 6.4566956 5.858246l0 0c0 3.235443 -2.890747 5.8582764 -6.4566956 5.8582764l0 0c-3.565918 0 -6.456665 -2.6228333 -6.456665 -5.8582764z" fill-rule="evenodd"/><path stroke="#000000" stroke-width="1.0" stroke-linejoin="round" stroke-linecap="butt" d="m393.77692 368.73752l0 0c0 -3.2354126 2.890747 -5.858246 6.456665 -5.858246l0 0c3.5659485 0 6.4566956 2.6228333 6.4566956 5.858246l0 0c0 3.235443 -2.890747 5.8582764 -6.4566956 5.8582764l0 0c-3.565918 0 -6.456665 -2.6228333 -6.456665 -5.8582764z" fill-rule="evenodd"/><path fill="#cfe2f3" d="m417.77692 408.73752l0 0c0 -3.2354126 2.890747 -5.858246 6.456665 -5.858246l0 0c3.5659485 0 6.4566956 2.6228333 6.4566956 5.858246l0 0c0 3.235443 -2.890747 5.8582764 -6.4566956 5.8582764l0 0c-3.565918 0 -6.456665 -2.6228333 -6.456665 -5.8582764z" fill-rule="evenodd"/><path stroke="#000000" stroke-width="1.0" stroke-linejoin="round" stroke-linecap="butt" d="m417.77692 408.73752l0 0c0 -3.2354126 2.890747 -5.858246 6.456665 -5.858246l0 0c3.5659485 0 6.4566956 2.6228333 6.4566956 5.858246l0 0c0 3.235443 -2.890747 5.8582764 -6.4566956 5.8582764l0 0c-3.565918 0 -6.456665 -2.6228333 -6.456665 -5.8582764z" fill-rule="evenodd"/><path fill="#ff0000" d="m473.77692 424.73752l0 0c0 -3.2354126 2.890747 -5.858246 6.456665 -5.858246l0 0c3.5659485 0 6.4566956 2.6228333 6.4566956 5.858246l0 0c0 3.235443 -2.890747 5.8582764 -6.4566956 5.8582764l0 0c-3.565918 0 -6.456665 -2.6228333 -6.456665 -5.8582764z" fill-rule="evenodd"/><path stroke="#000000" stroke-width="1.0" stroke-linejoin="round" stroke-linecap="butt" d="m473.77692 424.73752l0 0c0 -3.2354126 2.890747 -5.858246 6.456665 -5.858246l0 0c3.5659485 0 6.4566956 2.6228333 6.4566956 5.858246l0 0c0 3.235443 -2.890747 5.8582764 -6.4566956 5.8582764l0 0c-3.565918 0 -6.456665 -2.6228333 -6.456665 -5.8582764z" fill-rule="evenodd"/><path fill="#cfe2f3" d="m513.7769 392.73752l0 0c0 -3.2354126 2.890747 -5.858246 6.456665 -5.858246l0 0c3.565918 0 6.456726 2.6228333 6.456726 5.858246l0 0c0 3.235443 -2.890808 5.8582764 -6.456726 5.8582764l0 0c-3.565918 0 -6.456665 -2.6228333 -6.456665 -5.8582764z" fill-rule="evenodd"/><path stroke="#000000" stroke-width="1.0" stroke-linejoin="round" stroke-linecap="butt" d="m513.7769 392.73752l0 0c0 -3.2354126 2.890747 -5.858246 6.456665 -5.858246l0 0c3.565918 0 6.456726 2.6228333 6.456726 5.858246l0 0c0 3.235443 -2.890808 5.8582764 -6.456726 5.8582764l0 0c-3.565918 0 -6.456665 -2.6228333 -6.456665 -5.8582764z" fill-rule="evenodd"/><path fill="#cfe2f3" d="m505.77692 336.73752l0 0c0 -3.2354126 2.890747 -5.858246 6.456665 -5.858246l0 0c3.565918 0 6.456726 2.6228333 6.456726 5.858246l0 0c0 3.235443 -2.890808 5.8582764 -6.456726 5.8582764l0 0c-3.565918 0 -6.456665 -2.6228333 -6.456665 -5.8582764z" fill-rule="evenodd"/><path stroke="#000000" stroke-width="1.0" stroke-linejoin="round" stroke-linecap="butt" d="m505.77692 336.73752l0 0c0 -3.2354126 2.890747 -5.858246 6.456665 -5.858246l0 0c3.565918 0 6.456726 2.6228333 6.456726 5.858246l0 0c0 3.235443 -2.890808 5.8582764 -6.456726 5.8582764l0 0c-3.565918 0 -6.456665 -2.6228333 -6.456665 -5.8582764z" fill-rule="evenodd"/><path fill="#ff0000" d="m481.77692 288.73752l0 0c0 -3.2354126 2.890747 -5.858246 6.456665 -5.858246l0 0c3.5659485 0 6.4566956 2.6228333 6.4566956 5.858246l0 0c0 3.235443 -2.890747 5.8582764 -6.4566956 5.8582764l0 0c-3.565918 0 -6.456665 -2.6228333 -6.456665 -5.8582764z" fill-rule="evenodd"/><path stroke="#000000" stroke-width="1.0" stroke-linejoin="round" stroke-linecap="butt" d="m481.77692 288.73752l0 0c0 -3.2354126 2.890747 -5.858246 6.456665 -5.858246l0 0c3.5659485 0 6.4566956 2.6228333 6.4566956 5.858246l0 0c0 3.235443 -2.890747 5.8582764 -6.4566956 5.8582764l0 0c-3.565918 0 -6.456665 -2.6228333 -6.456665 -5.8582764z" fill-rule="evenodd"/><path fill="#000000" fill-opacity="0.0" d="m488.6433 270.28278l31.779541 0l0 38.834656l-31.779541 0z" fill-rule="evenodd"/><path fill="#000000" d="m498.2527 288.1909q0 -1.859375 0.375 -2.984375q0.390625 -1.140625 1.140625 -1.75q0.765625 -0.625 1.90625 -0.625q0.84375 0 1.46875 0.34375q0.640625 0.328125 1.0625 0.96875q0.421875 0.640625 0.65625 1.5625q0.234375 0.921875 0.234375 2.484375q0 1.84375 -0.390625 2.984375q-0.375 1.125 -1.125 1.75q-0.75 0.609375 -1.90625 0.609375q-1.515625 0 -2.390625 -1.078125q-1.03125 -1.3125 -1.03125 -4.265625zm1.328125 0q0 2.578125 0.59375 3.4375q0.609375 0.859375 1.5 0.859375q0.890625 0 1.484375 -0.859375q0.609375 -0.859375 0.609375 -3.4375q0 -2.59375 -0.609375 -3.4375q-0.59375 -0.859375 -1.5 -0.859375q-0.890625 0 -1.421875 0.75q-0.65625 0.96875 -0.65625 3.546875z" fill-rule="nonzero"/><path fill="#000000" fill-opacity="0.0" d="m513.3064 318.28278l31.779541 0l0 38.834656l-31.779541 0z" fill-rule="evenodd"/><path fill="#000000" d="m527.0408 341.36276l0 -2.515625l-4.546875 0l0 -1.171875l4.78125 -6.796875l1.0625 0l0 6.796875l1.40625 0l0 1.171875l-1.40625 0l0 2.515625l-1.296875 0zm0 -3.6875l0 -4.734375l-3.28125 4.734375l3.28125 0z" fill-rule="nonzero"/><path fill="#000000" fill-opacity="0.0" d="m520.6433 374.28278l31.779541 0l0 38.834656l-31.779541 0z" fill-rule="evenodd"/><path fill="#000000" d="m536.9402 389.4409l-1.28125 0.09375q-0.171875 -0.75 -0.484375 -1.09375q-0.53125 -0.546875 -1.296875 -0.546875q-0.609375 0 -1.078125 0.34375q-0.609375 0.4375 -0.96875 1.296875q-0.34375 0.84375 -0.359375 2.421875q0.46875 -0.71875 1.140625 -1.0625q0.671875 -0.34375 1.40625 -0.34375q1.296875 0 2.203125 0.953125q0.90625 0.953125 0.90625 2.453125q0 0.984375 -0.4375 1.84375q-0.421875 0.84375 -1.171875 1.296875q-0.734375 0.4375 -1.6875 0.4375q-1.609375 0 -2.625 -1.171875q-1.015625 -1.1875 -1.015625 -3.90625q0 -3.046875 1.125 -4.421875q0.984375 -1.203125 2.640625 -1.203125q1.234375 0 2.03125 0.703125q0.796875 0.6875 0.953125 1.90625zm-5.265625 4.515625q0 0.671875 0.28125 1.28125q0.28125 0.609375 0.78125 0.9375q0.515625 0.3125 1.078125 0.3125q0.8125 0 1.390625 -0.65625q0.59375 -0.671875 0.59375 -1.796875q0 -1.09375 -0.578125 -1.71875q-0.578125 -0.625 -1.453125 -0.625q-0.875 0 -1.484375 0.625q-0.609375 0.625 -0.609375 1.640625z" fill-rule="nonzero"/><path fill="#000000" fill-opacity="0.0" d="m480.94275 406.28278l31.779541 0l0 38.834656l-31.779541 0z" fill-rule="evenodd"/><path fill="#000000" d="m495.39587 429.36276l-1.28125 0l0 -8.203125q-0.46875 0.4375 -1.21875 0.890625q-0.75 0.4375 -1.359375 0.65625l0 -1.25q1.078125 -0.5 1.890625 -1.21875q0.8125 -0.734375 1.140625 -1.40625l0.828125 0l0 10.53125z" fill-rule="nonzero"/><path fill="#000000" fill-opacity="0.0" d="m423.68073 390.28278l31.779541 0l0 38.834656l-31.779541 0z" fill-rule="evenodd"/><path fill="#000000" d="m433.2901 410.59714l1.296875 -0.171875q0.21875 1.09375 0.75 1.578125q0.53125 0.484375 1.296875 0.484375q0.90625 0 1.53125 -0.625q0.640625 -0.640625 0.640625 -1.5625q0 -0.890625 -0.59375 -1.46875q-0.578125 -0.578125 -1.46875 -0.578125q-0.359375 0 -0.90625 0.140625l0.140625 -1.125q0.125 0.015625 0.203125 0.015625q0.828125 0 1.484375 -0.421875q0.65625 -0.4375 0.65625 -1.34375q0 -0.703125 -0.484375 -1.15625q-0.46875 -0.46875 -1.234375 -0.46875q-0.75 0 -1.25 0.46875q-0.5 0.46875 -0.640625 1.421875l-1.28125 -0.234375q0.234375 -1.296875 1.0625 -2.0q0.84375 -0.71875 2.09375 -0.71875q0.859375 0 1.578125 0.375q0.71875 0.359375 1.09375 1.0q0.390625 0.640625 0.390625 1.34375q0 0.6875 -0.375 1.25q-0.359375 0.546875 -1.0625 0.875q0.921875 0.21875 1.4375 0.90625q0.515625 0.671875 0.515625 1.6875q0 1.375 -1.0 2.328125q-1.0 0.953125 -2.53125 0.953125q-1.390625 0 -2.296875 -0.8125q-0.90625 -0.828125 -1.046875 -2.140625z" fill-rule="nonzero"/><path fill="#ff0000" d="m473.77692 363.6719l0 0c0 -3.2354126 2.890747 -5.858246 6.456665 -5.858246l0 0c3.5659485 0 6.4566956 2.6228333 6.4566956 5.858246l0 0c0 3.235443 -2.890747 5.8582764 -6.4566956 5.8582764l0 0c-3.565918 0 -6.456665 -2.6228333 -6.456665 -5.8582764z" fill-rule="evenodd"/><path stroke="#000000" stroke-width="1.0" stroke-linejoin="round" stroke-linecap="butt" d="m473.77692 363.6719l0 0c0 -3.2354126 2.890747 -5.858246 6.456665 -5.858246l0 0c3.5659485 0 6.4566956 2.6228333 6.4566956 5.858246l0 0c0 3.235443 -2.890747 5.8582764 -6.4566956 5.8582764l0 0c-3.565918 0 -6.456665 -2.6228333 -6.456665 -5.8582764z" fill-rule="evenodd"/><path fill="#000000" fill-opacity="0.0" d="m452.1941 344.5074l31.779541 0l0 38.834625l-31.779541 0z" fill-rule="evenodd"/><path fill="#000000" d="m461.8816 358.46237l0 -1.234375l6.796875 0l0 1.0q-1.0 1.078125 -1.984375 2.84375q-0.984375 1.765625 -1.515625 3.625q-0.390625 1.328125 -0.5 2.890625l-1.328125 0q0.03125 -1.234375 0.484375 -2.984375q0.46875 -1.765625 1.34375 -3.390625q0.875 -1.625 1.84375 -2.75l-5.140625 0z" fill-rule="nonzero"/><path fill="#d9f3cf" fill-opacity="0.5196" d="m532.2992 375.63187c-18.128601 -0.26593018 -52.460175 14.348938 -74.1181 17.537842c-21.657898 3.1889038 -46.524475 -3.5863342 -55.829376 1.5955505c-9.304901 5.1818542 -18.128632 20.460815 0 29.495636c18.128601 9.034851 81.338135 29.629364 108.77164 24.71341c27.433533 -4.9159546 52.30011 -41.98532 55.829407 -54.209045c3.5292969 -12.223755 -16.524963 -18.867462 -34.653564 -19.133392z" fill-rule="evenodd"/><path stroke="#000000" stroke-width="1.0" stroke-linejoin="round" stroke-linecap="butt" d="m532.2992 375.63187c-18.128601 -0.26593018 -52.460175 14.348938 -74.1181 17.537842c-21.657898 3.1889038 -46.524475 -3.5863342 -55.829376 1.5955505c-9.304901 5.1818542 -18.128632 20.460815 0 29.495636c18.128601 9.034851 81.338135 29.629364 108.77164 24.71341c27.433533 -4.9159546 52.30011 -41.98532 55.829407 -54.209045c3.5292969 -12.223755 -16.524963 -18.867462 -34.653564 -19.133392z" fill-rule="evenodd"/><path fill="#d3cff3" fill-opacity="0.5363" d="m527.48566 287.3862c-13.636475 -23.743225 -17.967163 -24.385376 -27.91336 -25.989502c-9.9461975 -1.6040955 -30.64087 2.4077148 -31.763794 16.364838c-1.1229248 13.957123 15.721802 41.228363 25.026245 67.37796c9.304474 26.149597 16.041138 79.73358 30.800507 89.519684c14.75946 9.786072 57.114197 -6.25766 57.75592 -30.803162c0.64172363 -24.545502 -40.269043 -92.72659 -53.905518 -116.46982z" fill-rule="evenodd"/><path stroke="#000000" stroke-width="1.0" stroke-linejoin="round" stroke-linecap="butt" d="m527.48566 287.3862c-13.636475 -23.743225 -17.967163 -24.385376 -27.91336 -25.989502c-9.9461975 -1.6040955 -30.64087 2.4077148 -31.763794 16.364838c-1.1229248 13.957123 15.721802 41.228363 25.026245 67.37796c9.304474 26.149597 16.041138 79.73358 30.800507 89.519684c14.75946 9.786072 57.114197 -6.25766 57.75592 -30.803162c0.64172363 -24.545502 -40.269043 -92.72659 -53.905518 -116.46982z" fill-rule="evenodd"/><path fill="#f3edcf" fill-opacity="0.4749" d="m535.1873 318.18924c-4.4921265 -6.096222 -6.737549 -19.413391 -28.876648 -5.776886c-22.13913 13.636475 -87.43396 66.74014 -103.95801 87.595795c-16.524078 20.855652 -0.8014221 32.083557 4.813629 37.538055c5.6150513 5.4544983 7.8604736 9.948395 28.876648 -4.811035c21.016174 -14.759399 80.69644 -64.65442 97.22049 -83.74539c16.524048 -19.091003 6.4160156 -24.704285 1.9238892 -30.800537z" fill-rule="evenodd"/><path stroke="#000000" stroke-width="1.0" stroke-linejoin="round" stroke-linecap="butt" d="m535.1873 318.18924c-4.4921265 -6.096222 -6.737549 -19.413391 -28.876648 -5.776886c-22.13913 13.636475 -87.43396 66.74014 -103.95801 87.595795c-16.524078 20.855652 -0.8014221 32.083557 4.813629 37.538055c5.6150513 5.4544983 7.8604736 9.948395 28.876648 -4.811035c21.016174 -14.759399 80.69644 -64.65442 97.22049 -83.74539c16.524048 -19.091003 6.4160156 -24.704285 1.9238892 -30.800537z" fill-rule="evenodd"/><path fill="#000000" fill-opacity="0.0" d="m372.1318 350.98993l37.448822 0l0 32.0l-37.448822 0z" fill-rule="evenodd"/><path fill="#000000" d="m387.83493 371.66495l0 1.125l-6.296875 0q-0.015625 -0.421875 0.140625 -0.8125q0.234375 -0.640625 0.765625 -1.265625q0.53125 -0.625 1.53125 -1.453125q1.5625 -1.265625 2.109375 -2.015625q0.546875 -0.75 0.546875 -1.40625q0 -0.703125 -0.5 -1.171875q-0.5 -0.484375 -1.296875 -0.484375q-0.859375 0 -1.375 0.515625q-0.5 0.5 -0.5 1.390625l-1.203125 -0.109375q0.125 -1.359375 0.921875 -2.0625q0.8125 -0.703125 2.171875 -0.703125q1.375 0 2.171875 0.765625q0.8125 0.75 0.8125 1.875q0 0.578125 -0.234375 1.140625q-0.234375 0.546875 -0.78125 1.15625q-0.546875 0.609375 -1.8125 1.671875q-1.046875 0.890625 -1.359375 1.21875q-0.296875 0.3125 -0.484375 0.625l4.671875 0z" fill-rule="nonzero"/><path fill="#000000" fill-opacity="0.0" d="m413.15854 313.87762l37.448822 0l0 32.0l-37.448822 0z" fill-rule="evenodd"/><path fill="#000000" d="m422.7054 333.17764l1.234375 -0.109375q0.140625 0.90625 0.640625 1.359375q0.5 0.453125 1.203125 0.453125q0.84375 0 1.421875 -0.640625q0.59375 -0.640625 0.59375 -1.6875q0 -1.0 -0.5625 -1.578125q-0.5625 -0.59375 -1.484375 -0.59375q-0.5625 0 -1.015625 0.265625q-0.453125 0.25 -0.71875 0.671875l-1.09375 -0.15625l0.921875 -4.890625l4.75 0l0 1.109375l-3.8125 0l-0.515625 2.5625q0.859375 -0.59375 1.796875 -0.59375q1.25 0 2.109375 0.875q0.859375 0.859375 0.859375 2.21875q0 1.296875 -0.75 2.234375q-0.921875 1.15625 -2.5 1.15625q-1.3125 0 -2.140625 -0.71875q-0.8125 -0.734375 -0.9375 -1.9375z" fill-rule="nonzero"/><path fill="#000000" fill-opacity="0.0" d="m545.0866 249.68767l95.968506 0l0 38.83464l-95.968506 0z" fill-rule="evenodd"/><path fill="#000000" d="m557.8835 272.76767l0 -9.25l-3.453125 0l0 -1.234375l8.3125 0l0 1.234375l-3.46875 0l0 9.25l-1.390625 0zm6.1245117 0l0 -10.484375l1.28125 0l0 3.75q0.90625 -1.03125 2.28125 -1.03125q0.84375 0 1.46875 0.328125q0.625 0.328125 0.890625 0.921875q0.265625 0.578125 0.265625 1.703125l0 4.8125l-1.28125 0l0 -4.8125q0 -0.96875 -0.421875 -1.40625q-0.421875 -0.4375 -1.1875 -0.4375q-0.578125 0 -1.078125 0.296875q-0.5 0.296875 -0.71875 0.8125q-0.21875 0.5 -0.21875 1.390625l0 4.15625l-1.28125 0zm13.354248 -2.453125l1.328125 0.171875q-0.3125 1.171875 -1.171875 1.8125q-0.84375 0.640625 -2.171875 0.640625q-1.671875 0 -2.65625 -1.015625q-0.96875 -1.03125 -0.96875 -2.890625q0 -1.921875 0.984375 -2.96875q1.0 -1.0625 2.578125 -1.0625q1.515625 0 2.484375 1.03125q0.96875 1.03125 0.96875 2.921875q0 0.109375 -0.015625 0.34375l-5.65625 0q0.0625 1.25 0.703125 1.921875q0.640625 0.65625 1.59375 0.65625q0.703125 0 1.203125 -0.359375q0.5 -0.375 0.796875 -1.203125zm-4.234375 -2.078125l4.25 0q-0.09375 -0.953125 -0.484375 -1.4375q-0.625 -0.75 -1.609375 -0.75q-0.875 0 -1.484375 0.59375q-0.609375 0.59375 -0.671875 1.59375zm10.7074585 1.546875l1.25 -0.171875q0.046875 1.203125 0.453125 1.65625q0.40625 0.4375 1.109375 0.4375q0.515625 0 0.890625 -0.234375q0.390625 -0.234375 0.53125 -0.640625q0.140625 -0.421875 0.140625 -1.328125l0 -7.21875l1.390625 0l0 7.140625q0 1.3125 -0.328125 2.046875q-0.3125 0.71875 -1.0 1.09375q-0.6875 0.375 -1.625 0.375q-1.375 0 -2.109375 -0.78125q-0.734375 -0.796875 -0.703125 -2.375zm12.859375 2.984375l0 -1.109375q-0.890625 1.28125 -2.421875 1.28125q-0.671875 0 -1.25 -0.25q-0.578125 -0.265625 -0.875 -0.65625q-0.28125 -0.390625 -0.390625 -0.953125q-0.078125 -0.375 -0.078125 -1.203125l0 -4.703125l1.28125 0l0 4.203125q0 1.015625 0.078125 1.359375q0.125 0.515625 0.515625 0.8125q0.40625 0.28125 0.984375 0.28125q0.578125 0 1.078125 -0.296875q0.515625 -0.296875 0.71875 -0.8125q0.21875 -0.515625 0.21875 -1.484375l0 -4.0625l1.28125 0l0 7.59375l-1.140625 0zm3.166687 0l0 -7.59375l1.15625 0l0 1.078125q0.84375 -1.25 2.421875 -1.25q0.6875 0 1.265625 0.25q0.578125 0.234375 0.859375 0.640625q0.28125 0.40625 0.40625 0.953125q0.0625 0.359375 0.0625 1.25l0 4.671875l-1.28125 0l0 -4.625q0 -0.78125 -0.15625 -1.171875q-0.15625 -0.390625 -0.546875 -0.625q-0.375 -0.234375 -0.890625 -0.234375q-0.8125 0 -1.421875 0.53125q-0.59375 0.515625 -0.59375 1.96875l0 4.15625l-1.28125 0zm7.916748 0.625l1.25 0.1875q0.078125 0.578125 0.4375 0.84375q0.46875 0.359375 1.3125 0.359375q0.890625 0 1.375 -0.359375q0.484375 -0.359375 0.65625 -1.0q0.109375 -0.390625 0.09375 -1.65625q-0.84375 1.0 -2.109375 1.0q-1.5625 0 -2.421875 -1.125q-0.859375 -1.140625 -0.859375 -2.71875q0 -1.09375 0.390625 -2.0q0.40625 -0.921875 1.140625 -1.421875q0.75 -0.5 1.765625 -0.5q1.34375 0 2.21875 1.078125l0 -0.90625l1.1875 0l0 6.5625q0 1.78125 -0.359375 2.515625q-0.359375 0.734375 -1.15625 1.15625q-0.78125 0.4375 -1.921875 0.4375q-1.359375 0 -2.203125 -0.609375q-0.828125 -0.609375 -0.796875 -1.84375zm1.0625 -4.5625q0 1.5 0.59375 2.1875q0.59375 0.6875 1.484375 0.6875q0.890625 0 1.484375 -0.6875q0.609375 -0.6875 0.609375 -2.140625q0 -1.390625 -0.625 -2.09375q-0.609375 -0.71875 -1.484375 -0.71875q-0.859375 0 -1.46875 0.703125q-0.59375 0.6875 -0.59375 2.0625zm7.291748 3.9375l0 -10.484375l1.28125 0l0 10.484375l-1.28125 0zm8.49054 -2.453125l1.328125 0.171875q-0.3125 1.171875 -1.171875 1.8125q-0.84375 0.640625 -2.171875 0.640625q-1.671875 0 -2.65625 -1.015625q-0.96875 -1.03125 -0.96875 -2.890625q0 -1.921875 0.984375 -2.96875q1.0 -1.0625 2.578125 -1.0625q1.515625 0 2.484375 1.03125q0.96875 1.03125 0.96875 2.921875q0 0.109375 -0.015625 0.34375l-5.65625 0q0.0625 1.25 0.703125 1.921875q0.640625 0.65625 1.59375 0.65625q0.703125 0 1.203125 -0.359375q0.5 -0.375 0.796875 -1.203125zm-4.234375 -2.078125l4.25 0q-0.09375 -0.953125 -0.484375 -1.4375q-0.625 -0.75 -1.609375 -0.75q-0.875 0 -1.484375 0.59375q-0.609375 0.59375 -0.671875 1.59375z" fill-rule="nonzero"/><path fill="#000000" fill-opacity="0.0" d="m545.0866 269.10498l-24.661438 20.59842" fill-rule="evenodd"/><path stroke="#000000" stroke-width="1.0" stroke-linejoin="round" stroke-linecap="butt" d="m545.0866 269.10498l-20.056396 16.752106" fill-rule="evenodd"/><path fill="#000000" stroke="#000000" stroke-width="1.0" stroke-linecap="butt" d="m523.9713 284.5894l-2.4241333 4.17688l4.54187 -1.641449z" fill-rule="evenodd"/><path fill="#000000" fill-opacity="0.0" d="m429.30447 461.61154l108.787384 0l0 32.0l-108.787384 0z" fill-rule="evenodd"/><path fill="#000000" d="m439.66385 484.69156l0 -10.484375l1.390625 0l0 10.484375l-1.390625 0zm3.6813354 0l0 -7.59375l1.15625 0l0 1.078125q0.84375 -1.25 2.421875 -1.25q0.6875 0 1.265625 0.25q0.578125 0.234375 0.859375 0.640625q0.28125 0.40625 0.40625 0.953125q0.0625 0.359375 0.0625 1.25l0 4.671875l-1.28125 0l0 -4.625q0 -0.78125 -0.15625 -1.171875q-0.15625 -0.390625 -0.546875 -0.625q-0.375 -0.234375 -0.890625 -0.234375q-0.8125 0 -1.421875 0.53125q-0.59375 0.515625 -0.59375 1.96875l0 4.15625l-1.28125 0zm10.260498 0l-2.890625 -7.59375l1.359375 0l1.625 4.546875q0.265625 0.734375 0.5 1.53125q0.15625 -0.609375 0.46875 -1.453125l1.6875 -4.625l1.328125 0l-2.875 7.59375l-1.203125 0zm5.21875 -9.015625l0 -1.46875l1.296875 0l0 1.46875l-1.296875 0zm0 9.015625l0 -7.59375l1.296875 0l0 7.59375l-1.296875 0zm2.740509 -2.265625l1.265625 -0.203125q0.109375 0.765625 0.59375 1.171875q0.5 0.40625 1.375 0.40625q0.890625 0 1.3125 -0.359375q0.4375 -0.359375 0.4375 -0.84375q0 -0.4375 -0.375 -0.6875q-0.265625 -0.171875 -1.3125 -0.4375q-1.421875 -0.359375 -1.96875 -0.609375q-0.546875 -0.265625 -0.828125 -0.734375q-0.28125 -0.46875 -0.28125 -1.015625q0 -0.515625 0.21875 -0.9375q0.234375 -0.4375 0.640625 -0.734375q0.296875 -0.21875 0.8125 -0.359375q0.53125 -0.15625 1.125 -0.15625q0.890625 0 1.5625 0.265625q0.671875 0.25 1.0 0.6875q0.328125 0.4375 0.4375 1.171875l-1.25 0.171875q-0.09375 -0.578125 -0.5 -0.90625q-0.40625 -0.34375 -1.15625 -0.34375q-0.890625 0 -1.28125 0.296875q-0.375 0.296875 -0.375 0.6875q0 0.25 0.15625 0.453125q0.15625 0.203125 0.5 0.34375q0.1875 0.078125 1.140625 0.328125q1.359375 0.359375 1.890625 0.59375q0.546875 0.234375 0.859375 0.6875q0.3125 0.4375 0.3125 1.09375q0 0.640625 -0.375 1.21875q-0.375 0.5625 -1.09375 0.875q-0.703125 0.3125 -1.59375 0.3125q-1.484375 0 -2.265625 -0.609375q-0.765625 -0.625 -0.984375 -1.828125zm7.84375 -6.75l0 -1.46875l1.296875 0l0 1.46875l-1.296875 0zm0 9.015625l0 -7.59375l1.296875 0l0 7.59375l-1.296875 0zm4.4436646 0l-1.203125 0l0 -10.484375l1.296875 0l0 3.734375q0.8125 -1.015625 2.078125 -1.015625q0.703125 0 1.328125 0.28125q0.625 0.28125 1.03125 0.796875q0.40625 0.5 0.625 1.234375q0.234375 0.71875 0.234375 1.53125q0 1.96875 -0.96875 3.03125q-0.953125 1.0625 -2.3125 1.0625q-1.34375 0 -2.109375 -1.125l0 0.953125zm-0.015625 -3.859375q0 1.375 0.375 1.984375q0.609375 0.984375 1.640625 0.984375q0.84375 0 1.453125 -0.734375q0.625 -0.734375 0.625 -2.1875q0 -1.484375 -0.59375 -2.1875q-0.59375 -0.71875 -1.421875 -0.71875q-0.84375 0 -1.46875 0.734375q-0.609375 0.734375 -0.609375 2.125zm6.9479675 3.859375l0 -10.484375l1.28125 0l0 10.484375l-1.28125 0zm8.49054 -2.453125l1.328125 0.171875q-0.3125 1.171875 -1.171875 1.8125q-0.84375 0.640625 -2.171875 0.640625q-1.671875 0 -2.65625 -1.015625q-0.96875 -1.03125 -0.96875 -2.890625q0 -1.921875 0.984375 -2.96875q1.0 -1.0625 2.578125 -1.0625q1.515625 0 2.484375 1.03125q0.96875 1.03125 0.96875 2.921875q0 0.109375 -0.015625 0.34375l-5.65625 0q0.0625 1.25 0.703125 1.921875q0.640625 0.65625 1.59375 0.65625q0.703125 0 1.203125 -0.359375q0.5 -0.375 0.796875 -1.203125zm-4.234375 -2.078125l4.25 0q-0.09375 -0.953125 -0.484375 -1.4375q-0.625 -0.75 -1.609375 -0.75q-0.875 0 -1.484375 0.59375q-0.609375 0.59375 -0.671875 1.59375zm11.3793335 4.53125l0 -10.484375l2.078125 0l2.484375 7.421875q0.34375 1.03125 0.5 1.546875q0.1875 -0.5625 0.5625 -1.671875l2.515625 -7.296875l1.859375 0l0 10.484375l-1.328125 0l0 -8.78125l-3.046875 8.78125l-1.265625 0l-3.03125 -8.9375l0 8.9375l-1.328125 0zm17.036896 -0.9375q-0.71875 0.609375 -1.375 0.859375q-0.65625 0.25 -1.421875 0.25q-1.25 0 -1.921875 -0.609375q-0.671875 -0.609375 -0.671875 -1.5625q0 -0.5625 0.25 -1.015625q0.25 -0.46875 0.65625 -0.75q0.421875 -0.28125 0.9375 -0.421875q0.375 -0.09375 1.140625 -0.1875q1.5625 -0.1875 2.296875 -0.453125q0.015625 -0.265625 0.015625 -0.328125q0 -0.796875 -0.375 -1.109375q-0.484375 -0.4375 -1.453125 -0.4375q-0.921875 0 -1.359375 0.328125q-0.421875 0.3125 -0.625 1.109375l-1.265625 -0.171875q0.171875 -0.796875 0.5625 -1.296875q0.390625 -0.5 1.140625 -0.765625q0.75 -0.265625 1.71875 -0.265625q0.984375 0 1.59375 0.234375q0.609375 0.21875 0.890625 0.5625q0.28125 0.34375 0.40625 0.875q0.0625 0.328125 0.0625 1.1875l0 1.71875q0 1.796875 0.078125 2.28125q0.078125 0.46875 0.328125 0.90625l-1.34375 0q-0.203125 -0.40625 -0.265625 -0.9375zm-0.109375 -2.875q-0.703125 0.28125 -2.09375 0.484375q-0.796875 0.109375 -1.125 0.265625q-0.328125 0.140625 -0.515625 0.421875q-0.171875 0.265625 -0.171875 0.59375q0 0.515625 0.390625 0.859375q0.390625 0.34375 1.140625 0.34375q0.734375 0 1.3125 -0.3125q0.59375 -0.328125 0.859375 -0.890625q0.203125 -0.4375 0.203125 -1.296875l0 -0.46875zm3.307373 3.8125l0 -7.59375l1.15625 0l0 1.078125q0.84375 -1.25 2.421875 -1.25q0.6875 0 1.265625 0.25q0.578125 0.234375 0.859375 0.640625q0.28125 0.40625 0.40625 0.953125q0.0625 0.359375 0.0625 1.25l0 4.671875l-1.28125 0l0 -4.625q0 -0.78125 -0.15625 -1.171875q-0.15625 -0.390625 -0.546875 -0.625q-0.375 -0.234375 -0.890625 -0.234375q-0.8125 0 -1.421875 0.53125q-0.59375 0.515625 -0.59375 1.96875l0 4.15625l-1.28125 0z" fill-rule="nonzero"/><path fill="#000000" fill-opacity="0.0" d="m483.69815 461.61154l13.133881 -16.503937" fill-rule="evenodd"/><path stroke="#000000" stroke-width="1.0" stroke-linejoin="round" stroke-linecap="butt" d="m483.69815 461.61154l9.397736 -11.809143" fill-rule="evenodd"/><path fill="#000000" stroke="#000000" stroke-width="1.0" stroke-linecap="butt" d="m494.3883 450.83093l1.5334167 -4.5794373l-4.1182556 2.5224z" fill-rule="evenodd"/><path fill="#000000" fill-opacity="0.0" d="m305.33334 369.53018l86.39368 0l0 38.834656l-86.39368 0z" fill-rule="evenodd"/><path fill="#000000" d="m322.94272 388.9383l1.390625 0.34375q-0.4375 1.703125 -1.578125 2.609375q-1.125 0.890625 -2.765625 0.890625q-1.6875 0 -2.75 -0.6875q-1.0625 -0.6875 -1.625 -2.0q-0.546875 -1.3125 -0.546875 -2.8125q0 -1.640625 0.625 -2.859375q0.625 -1.21875 1.78125 -1.84375q1.15625 -0.640625 2.546875 -0.640625q1.5625 0 2.640625 0.8125q1.078125 0.796875 1.5 2.25l-1.375 0.3125q-0.359375 -1.140625 -1.0625 -1.65625q-0.6875 -0.53125 -1.734375 -0.53125q-1.21875 0 -2.03125 0.578125q-0.8125 0.578125 -1.140625 1.5625q-0.328125 0.96875 -0.328125 2.015625q0 1.328125 0.390625 2.328125q0.390625 1.0 1.21875 1.5q0.828125 0.484375 1.78125 0.484375q1.171875 0 1.96875 -0.671875q0.8125 -0.671875 1.09375 -1.984375zm7.896759 2.734375q-0.71875 0.609375 -1.375 0.859375q-0.65625 0.25 -1.421875 0.25q-1.25 0 -1.921875 -0.609375q-0.671875 -0.609375 -0.671875 -1.5625q0 -0.5625 0.25 -1.015625q0.25 -0.46875 0.65625 -0.75q0.421875 -0.28125 0.9375 -0.421875q0.375 -0.09375 1.140625 -0.1875q1.5625 -0.1875 2.296875 -0.453125q0.015625 -0.265625 0.015625 -0.328125q0 -0.796875 -0.375 -1.109375q-0.484375 -0.4375 -1.453125 -0.4375q-0.921875 0 -1.359375 0.328125q-0.421875 0.3125 -0.625 1.109375l-1.265625 -0.171875q0.171875 -0.796875 0.5625 -1.296875q0.390625 -0.5 1.140625 -0.765625q0.75 -0.265625 1.71875 -0.265625q0.984375 0 1.59375 0.234375q0.609375 0.21875 0.890625 0.5625q0.28125 0.34375 0.40625 0.875q0.0625 0.328125 0.0625 1.1875l0 1.71875q0 1.796875 0.078125 2.28125q0.078125 0.46875 0.328125 0.90625l-1.34375 0q-0.203125 -0.40625 -0.265625 -0.9375zm-0.109375 -2.875q-0.703125 0.28125 -2.09375 0.484375q-0.796875 0.109375 -1.125 0.265625q-0.328125 0.140625 -0.515625 0.421875q-0.171875 0.265625 -0.171875 0.59375q0 0.515625 0.390625 0.859375q0.390625 0.34375 1.140625 0.34375q0.734375 0 1.3125 -0.3125q0.59375 -0.328125 0.859375 -0.890625q0.203125 -0.4375 0.203125 -1.296875l0 -0.46875zm6.119873 2.65625l0.1875 1.140625q-0.546875 0.109375 -0.984375 0.109375q-0.6875 0 -1.078125 -0.21875q-0.390625 -0.21875 -0.546875 -0.578125q-0.15625 -0.359375 -0.15625 -1.515625l0 -4.375l-0.953125 0l0 -1.0l0.953125 0l0 -1.890625l1.28125 -0.765625l0 2.65625l1.296875 0l0 1.0l-1.296875 0l0 4.4375q0 0.546875 0.0625 0.71875q0.078125 0.15625 0.21875 0.25q0.15625 0.078125 0.453125 0.078125q0.203125 0 0.5625 -0.046875zm6.2125854 -1.625l1.265625 0.15625q-0.203125 1.3125 -1.0625 2.0625q-0.84375 0.734375 -2.09375 0.734375q-1.5625 0 -2.515625 -1.015625q-0.9375 -1.03125 -0.9375 -2.921875q0 -1.234375 0.40625 -2.15625q0.40625 -0.921875 1.234375 -1.375q0.84375 -0.46875 1.8125 -0.46875q1.25 0 2.03125 0.625q0.78125 0.625 1.015625 1.765625l-1.265625 0.203125q-0.171875 -0.765625 -0.625 -1.15625q-0.453125 -0.390625 -1.09375 -0.390625q-0.984375 0 -1.59375 0.703125q-0.609375 0.703125 -0.609375 2.203125q0 1.53125 0.578125 2.234375q0.59375 0.6875 1.546875 0.6875q0.75 0 1.265625 -0.453125q0.515625 -0.46875 0.640625 -1.4375zm2.375 2.78125l0 -10.484375l1.28125 0l0 3.75q0.90625 -1.03125 2.28125 -1.03125q0.84375 0 1.46875 0.328125q0.625 0.328125 0.890625 0.921875q0.265625 0.578125 0.265625 1.703125l0 4.8125l-1.28125 0l0 -4.8125q0 -0.96875 -0.421875 -1.40625q-0.421875 -0.4375 -1.1875 -0.4375q-0.578125 0 -1.078125 0.296875q-0.5 0.296875 -0.71875 0.8125q-0.21875 0.5 -0.21875 1.390625l0 4.15625l-1.28125 0zm7.651123 -3.15625l0 -1.28125l3.953125 0l0 1.28125l-3.953125 0zm11.786896 1.921875l0 1.234375l-6.9375 0q-0.015625 -0.46875 0.15625 -0.890625q0.265625 -0.71875 0.84375 -1.40625q0.59375 -0.6875 1.6875 -1.578125q1.71875 -1.40625 2.3125 -2.21875q0.609375 -0.828125 0.609375 -1.5625q0 -0.765625 -0.5625 -1.28125q-0.546875 -0.53125 -1.421875 -0.53125q-0.921875 0 -1.484375 0.5625q-0.5625 0.5625 -0.5625 1.546875l-1.328125 -0.140625q0.140625 -1.484375 1.015625 -2.25q0.890625 -0.78125 2.390625 -0.78125q1.515625 0 2.390625 0.84375q0.875 0.828125 0.875 2.0625q0 0.640625 -0.265625 1.25q-0.25 0.59375 -0.84375 1.265625q-0.59375 0.671875 -1.984375 1.859375q-1.15625 0.96875 -1.484375 1.3125q-0.328125 0.34375 -0.546875 0.703125l5.140625 0zm8.151093 0l0 1.234375l-6.9375 0q-0.015625 -0.46875 0.15625 -0.890625q0.265625 -0.71875 0.84375 -1.40625q0.59375 -0.6875 1.6875 -1.578125q1.71875 -1.40625 2.3125 -2.21875q0.609375 -0.828125 0.609375 -1.5625q0 -0.765625 -0.5625 -1.28125q-0.546875 -0.53125 -1.421875 -0.53125q-0.921875 0 -1.484375 0.5625q-0.5625 0.5625 -0.5625 1.546875l-1.328125 -0.140625q0.140625 -1.484375 1.015625 -2.25q0.890625 -0.78125 2.390625 -0.78125q1.515625 0 2.390625 0.84375q0.875 0.828125 0.875 2.0625q0 0.640625 -0.265625 1.25q-0.25 0.59375 -0.84375 1.265625q-0.59375 0.671875 -1.984375 1.859375q-1.15625 0.96875 -1.484375 1.3125q-0.328125 0.34375 -0.546875 0.703125l5.140625 0z" fill-rule="nonzero"/><path fill="#000000" fill-opacity="0.0" d="m391.72702 388.9475l60.472443 -25.007874" fill-rule="evenodd"/><path stroke="#000000" stroke-width="1.0" stroke-linejoin="round" stroke-linecap="butt" d="m391.72702 388.9475l54.927887 -22.714935" fill-rule="evenodd"/><path fill="#000000" stroke="#000000" stroke-width="1.0" stroke-linecap="butt" d="m447.2861 367.7589l3.562439 -3.26062l-4.8248596 0.20788574z" fill-rule="evenodd"/></g></svg>
